{"asset":{"version":"2.0","generator":"Blockbench 3.8.3 glTF exporter"},"scenes":[{"nodes":[30],"name":"blockbench_export"}],"scene":0,"nodes":[{"translation":[0,-1.5,0],"name":"828a0bbd-f7f6-f15d-3a6a-77857fb389a0","mesh":0},{"translation":[0,-1.5,0],"name":"800ce50b-2367-3d7c-28d3-d966d2613bb0","mesh":1},{"translation":[0,-1.5,0],"name":"c1ba82a4-ece3-98ff-3e34-0e9ae755bfb2","mesh":2},{"name":"hat","children":[2]},{"name":"head","children":[1,3]},{"translation":[0,-1.5,-0.125],"name":"6d12b53a-1c43-9e4c-9d3f-a40e3de7f337","mesh":3},{"rotation":[7.992424175358916e-18,-0.9914448613738104,0.13052619222005157,6.070848880062641e-17],"translation":[0,0,0.125],"name":"cape","children":[5]},{"translation":[0.3125,-1.375,0],"name":"79c5a0b8-3afd-b2e7-efee-e5822e8683ee","mesh":4},{"translation":[0.3125,-1.375,0],"name":"8aa6488c-3eae-5702-4e5c-71a4233f5e0d","mesh":5},{"name":"leftSleeve","children":[8]},{"translation":[-0.0625,-0.4375,0.0625],"name":"leftItem"},{"rotation":[-0.06869860719217002,0.14019586330472467,-0.11763829719157483,0.9807073224545463],"translation":[-0.3125,-0.125,0],"name":"leftArm","children":[7,9,10]},{"translation":[-0.3125,-1.375,0],"name":"a715778e-9f90-2d8b-96f3-2e63abcc988f","mesh":6},{"translation":[-0.3125,-1.375,0],"name":"0d662ae6-4339-c6af-f1f8-2b6f415bb86c","mesh":7},{"name":"rightSleeve","children":[13]},{"name":"a3ba6f79-773a-60b5-6e92-6cd0eb713b94","mesh":8},{"rotation":[-0.3826834323650898,0,0,0.9238795325112867],"translation":[0.0625,-0.4375,0.375],"name":"rightItem","children":[15]},{"rotation":[0.10058188063494009,-0.1648484033552554,0.10058188063494009,0.976007978700533],"translation":[0.3125,-0.125,0],"name":"rightArm","children":[12,14,16]},{"translation":[0,-1.5,0],"name":"accc41f7-7ccb-52a6-d2ec-ecb9a66bd2e6","mesh":9},{"name":"jacket","children":[18]},{"translation":[0,0.75,0],"name":"body","children":[0,4,6,11,17,19]},{"translation":[0,0.75,0],"name":"waist","children":[20]},{"translation":[0.11875,-0.75,0],"name":"c797cd18-eb15-3334-1785-b2c51b27b0ad","mesh":10},{"translation":[0.11875,-0.75,0],"name":"7c72ec22-1819-fab5-9085-704c033cdd4b","mesh":11},{"name":"leftPants","children":[23]},{"rotation":[-0.031716372848194854,0.13367489758299864,-0.08065606284759967,0.9872282881762725],"translation":[-0.11875,0.75,0],"name":"leftLeg","children":[22,24]},{"translation":[-0.11875,-0.75,0],"name":"c5224feb-51db-5973-ea42-c40a95c2e2bc","mesh":12},{"translation":[-0.11875,-0.75,0],"name":"ad82222f-73ec-5efd-d988-4c99285c3f95","mesh":13},{"name":"rightPants","children":[27]},{"rotation":[0.09199967716329678,-0.12613658517555598,0.05444693224342944,0.9862358505202384],"translation":[0.11875,0.75,0],"name":"rightLeg","children":[26,28]},{"name":"root","children":[21,25,29]}],"bufferViews":[{"buffer":0,"byteOffset":0,"byteLength":432,"target":34962,"byteStride":12},{"buffer":0,"byteOffset":432,"byteLength":432,"target":34962,"byteStride":12},{"buffer":0,"byteOffset":864,"byteLength":288,"target":34962,"byteStride":8},{"buffer":0,"byteOffset":1152,"byteLength":432,"target":34962,"byteStride":12},{"buffer":0,"byteOffset":1584,"byteLength":432,"target":34962,"byteStride":12},{"buffer":0,"byteOffset":2016,"byteLength":288,"target":34962,"byteStride":8},{"buffer":0,"byteOffset":2304,"byteLength":432,"target":34962,"byteStride":12},{"buffer":0,"byteOffset":2736,"byteLength":432,"target":34962,"byteStride":12},{"buffer":0,"byteOffset":3168,"byteLength":288,"target":34962,"byteStride":8},{"buffer":0,"byteOffset":3456,"byteLength":432,"target":34962,"byteStride":12},{"buffer":0,"byteOffset":3888,"byteLength":432,"target":34962,"byteStride":12},{"buffer":0,"byteOffset":4320,"byteLength":288,"target":34962,"byteStride":8},{"buffer":0,"byteOffset":4608,"byteLength":432,"target":34962,"byteStride":12},{"buffer":0,"byteOffset":5040,"byteLength":432,"target":34962,"byteStride":12},{"buffer":0,"byteOffset":5472,"byteLength":288,"target":34962,"byteStride":8},{"buffer":0,"byteOffset":5760,"byteLength":432,"target":34962,"byteStride":12},{"buffer":0,"byteOffset":6192,"byteLength":432,"target":34962,"byteStride":12},{"buffer":0,"byteOffset":6624,"byteLength":288,"target":34962,"byteStride":8},{"buffer":0,"byteOffset":6912,"byteLength":432,"target":34962,"byteStride":12},{"buffer":0,"byteOffset":7344,"byteLength":432,"target":34962,"byteStride":12},{"buffer":0,"byteOffset":7776,"byteLength":288,"target":34962,"byteStride":8},{"buffer":0,"byteOffset":8064,"byteLength":432,"target":34962,"byteStride":12},{"buffer":0,"byteOffset":8496,"byteLength":432,"target":34962,"byteStride":12},{"buffer":0,"byteOffset":8928,"byteLength":288,"target":34962,"byteStride":8},{"buffer":0,"byteOffset":9216,"byteLength":432,"target":34962,"byteStride":12},{"buffer":0,"byteOffset":9648,"byteLength":432,"target":34962,"byteStride":12},{"buffer":0,"byteOffset":10080,"byteLength":288,"target":34962,"byteStride":8},{"buffer":0,"byteOffset":10368,"byteLength":432,"target":34962,"byteStride":12},{"buffer":0,"byteOffset":10800,"byteLength":432,"target":34962,"byteStride":12},{"buffer":0,"byteOffset":11232,"byteLength":288,"target":34962,"byteStride":8},{"buffer":0,"byteOffset":11520,"byteLength":432,"target":34962,"byteStride":12},{"buffer":0,"byteOffset":11952,"byteLength":432,"target":34962,"byteStride":12},{"buffer":0,"byteOffset":12384,"byteLength":288,"target":34962,"byteStride":8},{"buffer":0,"byteOffset":12672,"byteLength":432,"target":34962,"byteStride":12},{"buffer":0,"byteOffset":13104,"byteLength":432,"target":34962,"byteStride":12},{"buffer":0,"byteOffset":13536,"byteLength":288,"target":34962,"byteStride":8},{"buffer":0,"byteOffset":13824,"byteLength":432,"target":34962,"byteStride":12},{"buffer":0,"byteOffset":14256,"byteLength":432,"target":34962,"byteStride":12},{"buffer":0,"byteOffset":14688,"byteLength":288,"target":34962,"byteStride":8},{"buffer":0,"byteOffset":14976,"byteLength":432,"target":34962,"byteStride":12},{"buffer":0,"byteOffset":15408,"byteLength":432,"target":34962,"byteStride":12},{"buffer":0,"byteOffset":15840,"byteLength":288,"target":34962,"byteStride":8}],"buffers":[{"byteLength":16128,"uri":"data:application/octet-stream;base64,"}],"accessors":[{"bufferView":0,"componentType":5126,"count":36,"max":[0.25,1.5,0.125],"min":[-0.25,0.75,-0.125],"type":"VEC3"},{"bufferView":1,"componentType":5126,"count":36,"max":[1,1,1],"min":[-1,-1,-1],"type":"VEC3"},{"bufferView":2,"componentType":5126,"count":36,"max":[0.3123779296875,0.8748779296875],"min":[0.1251220703125,0.7501220703125],"type":"VEC2"},{"bufferView":3,"componentType":5126,"count":36,"max":[0.25,2,0.25],"min":[-0.25,1.5,-0.25],"type":"VEC3"},{"bufferView":4,"componentType":5126,"count":36,"max":[1,1,1],"min":[-1,-1,-1],"type":"VEC3"},{"bufferView":5,"componentType":5126,"count":36,"max":[0.2498779296875,0.9998779296875],"min":[0.0001220703125,0.8751220703125],"type":"VEC2"},{"bufferView":6,"componentType":5126,"count":36,"max":[0.28125,2.03125,0.28125],"min":[-0.28125,1.46875,-0.28125],"type":"VEC3"},{"bufferView":7,"componentType":5126,"count":36,"max":[1,1,1],"min":[-1,-1,-1],"type":"VEC3"},{"bufferView":8,"componentType":5126,"count":36,"max":[0.4998779296875,0.9998779296875],"min":[0.2501220703125,0.8751220703125],"type":"VEC2"},{"bufferView":9,"componentType":5126,"count":36,"max":[0.3125,1.5,0.125],"min":[-0.3125,0.5,0.0625],"type":"VEC3"},{"bufferView":10,"componentType":5126,"count":36,"max":[1,1,1],"min":[-1,-1,-1],"type":"VEC3"},{"bufferView":11,"componentType":5126,"count":36,"max":[0.6092529296875,0.8748779296875],"min":[0.4376220703125,0.7423095703125],"type":"VEC2"},{"bufferView":12,"componentType":5126,"count":36,"max":[-0.25,1.5,0.125],"min":[-0.4375,0.75,-0.125],"type":"VEC3"},{"bufferView":13,"componentType":5126,"count":36,"max":[1,1,1],"min":[-1,-1,-1],"type":"VEC3"},{"bufferView":14,"componentType":5126,"count":36,"max":[0.3592529296875,0.6248779296875],"min":[0.2501220703125,0.5001220703125],"type":"VEC2"},{"bufferView":15,"componentType":5126,"count":36,"max":[-0.234375,1.515625,0.140625],"min":[-0.453125,0.734375,-0.140625],"type":"VEC3"},{"bufferView":16,"componentType":5126,"count":36,"max":[1,1,1],"min":[-1,-1,-1],"type":"VEC3"},{"bufferView":17,"componentType":5126,"count":36,"max":[0.4842529296875,0.6248779296875],"min":[0.3751220703125,0.5001220703125],"type":"VEC2"},{"bufferView":18,"componentType":5126,"count":36,"max":[0.4375,1.5,0.125],"min":[0.25,0.75,-0.125],"type":"VEC3"},{"bufferView":19,"componentType":5126,"count":36,"max":[1,1,1],"min":[-1,-1,-1],"type":"VEC3"},{"bufferView":20,"componentType":5126,"count":36,"max":[0.4217529296875,0.8748779296875],"min":[0.3126220703125,0.7501220703125],"type":"VEC2"},{"bufferView":21,"componentType":5126,"count":36,"max":[0.453125,1.515625,0.140625],"min":[0.234375,0.734375,-0.140625],"type":"VEC3"},{"bufferView":22,"componentType":5126,"count":36,"max":[1,1,1],"min":[-1,-1,-1],"type":"VEC3"},{"bufferView":23,"componentType":5126,"count":36,"max":[0.4217529296875,0.7498779296875],"min":[0.3126220703125,0.6251220703125],"type":"VEC2"},{"bufferView":24,"componentType":5126,"count":36,"max":[0.03125,0.96875,-0.09375],"min":[-0.03125,0.03125,-1.03125],"type":"VEC3"},{"bufferView":25,"componentType":5126,"count":36,"max":[1,1,1],"min":[-1,-1,-1],"type":"VEC3"},{"bufferView":26,"componentType":5126,"count":36,"max":[0.7501220703125,1.1248779296875],"min":[0.5001220703125,0.8751220703125],"type":"VEC2"},{"bufferView":27,"componentType":5126,"count":36,"max":[0.265625,1.515625,0.140625],"min":[-0.265625,0.734375,-0.140625],"type":"VEC3"},{"bufferView":28,"componentType":5126,"count":36,"max":[1,1,1],"min":[-1,-1,-1],"type":"VEC3"},{"bufferView":29,"componentType":5126,"count":36,"max":[0.3123779296875,0.7498779296875],"min":[0.1251220703125,0.6251220703125],"type":"VEC2"},{"bufferView":30,"componentType":5126,"count":36,"max":[0.0062500000931322575,0.75,0.125],"min":[-0.24375000596046448,0,-0.125],"type":"VEC3"},{"bufferView":31,"componentType":5126,"count":36,"max":[1,1,1],"min":[-1,-1,-1],"type":"VEC3"},{"bufferView":32,"componentType":5126,"count":36,"max":[0.2498779296875,0.6248779296875],"min":[0.1251220703125,0.5001220703125],"type":"VEC2"},{"bufferView":33,"componentType":5126,"count":36,"max":[0.02187499962747097,0.765625,0.140625],"min":[-0.2593750059604645,-0.015625,-0.140625],"type":"VEC3"},{"bufferView":34,"componentType":5126,"count":36,"max":[1,1,1],"min":[-1,-1,-1],"type":"VEC3"},{"bufferView":35,"componentType":5126,"count":36,"max":[0.1248779296875,0.6248779296875],"min":[0.0001220703125,0.5001220703125],"type":"VEC2"},{"bufferView":36,"componentType":5126,"count":36,"max":[0.24375000596046448,0.75,0.125],"min":[-0.0062500000931322575,0,-0.125],"type":"VEC3"},{"bufferView":37,"componentType":5126,"count":36,"max":[1,1,1],"min":[-1,-1,-1],"type":"VEC3"},{"bufferView":38,"componentType":5126,"count":36,"max":[0.1248779296875,0.8748779296875],"min":[0.0001220703125,0.7501220703125],"type":"VEC2"},{"bufferView":39,"componentType":5126,"count":36,"max":[0.2593750059604645,0.765625,0.140625],"min":[-0.02187499962747097,-0.015625,-0.140625],"type":"VEC3"},{"bufferView":40,"componentType":5126,"count":36,"max":[1,1,1],"min":[-1,-1,-1],"type":"VEC3"},{"bufferView":41,"componentType":5126,"count":36,"max":[0.1248779296875,0.7498779296875],"min":[0.0001220703125,0.6251220703125],"type":"VEC2"}],"materials":[{"pbrMetallicRoughness":{"metallicFactor":0,"roughnessFactor":1,"baseColorTexture":{"index":0}},"alphaMode":"MASK","alphaCutoff":0.05,"doubleSided":true,"name":"LaserFont0103_model.png"}],"textures":[{"sampler":0,"source":0,"name":"LaserFont0103_model.png"}],"samplers":[{"magFilter":9728,"minFilter":9728,"wrapS":33071,"wrapT":33071}],"images":[{"mimeType":"image/png","uri":"data:image/png;base64,"}],"meshes":[{"primitives":[{"mode":4,"attributes":{"POSITION":0,"NORMAL":1,"TEXCOORD_0":2},"material":0}]},{"primitives":[{"mode":4,"attributes":{"POSITION":3,"NORMAL":4,"TEXCOORD_0":5},"material":0}]},{"primitives":[{"mode":4,"attributes":{"POSITION":6,"NORMAL":7,"TEXCOORD_0":8},"material":0}]},{"primitives":[{"mode":4,"attributes":{"POSITION":9,"NORMAL":10,"TEXCOORD_0":11},"material":0}]},{"primitives":[{"mode":4,"attributes":{"POSITION":12,"NORMAL":13,"TEXCOORD_0":14},"material":0}]},{"primitives":[{"mode":4,"attributes":{"POSITION":15,"NORMAL":16,"TEXCOORD_0":17},"material":0}]},{"primitives":[{"mode":4,"attributes":{"POSITION":18,"NORMAL":19,"TEXCOORD_0":20},"material":0}]},{"primitives":[{"mode":4,"attributes":{"POSITION":21,"NORMAL":22,"TEXCOORD_0":23},"material":0}]},{"primitives":[{"mode":4,"attributes":{"POSITION":24,"NORMAL":25,"TEXCOORD_0":26},"material":0}]},{"primitives":[{"mode":4,"attributes":{"POSITION":27,"NORMAL":28,"TEXCOORD_0":29},"material":0}]},{"primitives":[{"mode":4,"attributes":{"POSITION":30,"NORMAL":31,"TEXCOORD_0":32},"material":0}]},{"primitives":[{"mode":4,"attributes":{"POSITION":33,"NORMAL":34,"TEXCOORD_0":35},"material":0}]},{"primitives":[{"mode":4,"attributes":{"POSITION":36,"NORMAL":37,"TEXCOORD_0":38},"material":0}]},{"primitives":[{"mode":4,"attributes":{"POSITION":39,"NORMAL":40,"TEXCOORD_0":41},"material":0}]}]}